<?xml version="1.0" encoding="UTF-8"?>
<svg xmlns="http://www.w3.org/2000/svg" version="1.1" width="300" height="300" viewBox="0 0 300 300"><rect x="0" y="0" width="300" height="300" fill="#ffffff"/><g transform="scale(12)"><g transform="translate(0,0)"><path fill-rule="evenodd" d="M9 0L9 1L8 1L8 2L9 2L9 3L8 3L8 4L10 4L10 7L11 7L11 4L12 4L12 5L13 5L13 6L12 6L12 9L16 9L16 10L14 10L14 11L17 11L17 12L13 12L13 13L12 13L12 11L13 11L13 10L11 10L11 11L10 11L10 9L11 9L11 8L6 8L6 9L7 9L7 10L6 10L6 11L7 11L7 10L8 10L8 9L9 9L9 12L8 12L8 13L7 13L7 12L6 12L6 13L7 13L7 14L6 14L6 15L4 15L4 14L5 14L5 11L3 11L3 10L5 10L5 8L0 8L0 9L1 9L1 10L0 10L0 12L1 12L1 13L0 13L0 17L1 17L1 13L2 13L2 11L3 11L3 15L4 15L4 16L2 16L2 17L4 17L4 16L5 16L5 17L7 17L7 16L10 16L10 14L11 14L11 13L12 13L12 14L13 14L13 13L16 13L16 14L14 14L14 16L13 16L13 15L12 15L12 17L14 17L14 18L11 18L11 17L8 17L8 19L10 19L10 20L11 20L11 21L10 21L10 22L11 22L11 21L12 21L12 24L11 24L11 25L12 25L12 24L13 24L13 25L14 25L14 24L18 24L18 25L25 25L25 21L23 21L23 20L22 20L22 19L24 19L24 20L25 20L25 18L23 18L23 16L22 16L22 13L23 13L23 15L24 15L24 16L25 16L25 14L24 14L24 13L25 13L25 10L24 10L24 8L23 8L23 11L24 11L24 12L22 12L22 13L21 13L21 11L22 11L22 10L20 10L20 8L19 8L19 10L18 10L18 11L17 11L17 9L18 9L18 8L17 8L17 6L16 6L16 5L15 5L15 2L16 2L16 3L17 3L17 0L16 0L16 1L14 1L14 0L13 0L13 1L11 1L11 2L10 2L10 0ZM12 2L12 4L13 4L13 5L14 5L14 6L13 6L13 8L15 8L15 7L16 7L16 6L15 6L15 5L14 5L14 4L13 4L13 3L14 3L14 2ZM10 3L10 4L11 4L11 3ZM8 5L8 7L9 7L9 5ZM14 6L14 7L15 7L15 6ZM21 8L21 9L22 9L22 8ZM1 10L1 11L2 11L2 10ZM18 11L18 12L19 12L19 13L17 13L17 15L18 15L18 14L19 14L19 15L21 15L21 13L20 13L20 12L19 12L19 11ZM10 12L10 13L8 13L8 14L10 14L10 13L11 13L11 12ZM19 13L19 14L20 14L20 13ZM6 15L6 16L7 16L7 15ZM15 15L15 17L16 17L16 15ZM21 16L21 17L22 17L22 16ZM17 17L17 20L20 20L20 17ZM14 18L14 19L12 19L12 20L14 20L14 22L15 22L15 20L16 20L16 18ZM18 18L18 19L19 19L19 18ZM8 20L8 25L9 25L9 20ZM16 21L16 22L17 22L17 23L18 23L18 24L19 24L19 22L20 22L20 23L22 23L22 24L24 24L24 22L23 22L23 23L22 23L22 21L21 21L21 22L20 22L20 21L19 21L19 22L17 22L17 21ZM13 23L13 24L14 24L14 23ZM0 0L0 7L7 7L7 0ZM1 1L1 6L6 6L6 1ZM2 2L2 5L5 5L5 2ZM18 0L18 7L25 7L25 0ZM19 1L19 6L24 6L24 1ZM20 2L20 5L23 5L23 2ZM0 18L0 25L7 25L7 18ZM1 19L1 24L6 24L6 19ZM2 20L2 23L5 23L5 20Z" fill="#000000"/></g></g></svg>
