<?xml version="1.0" encoding="UTF-8"?>
<svg xmlns="http://www.w3.org/2000/svg" version="1.1" width="300" height="300" viewBox="0 0 300 300"><rect x="0" y="0" width="300" height="300" fill="#ffffff"/><g transform="scale(12)"><g transform="translate(0,0)"><path fill-rule="evenodd" d="M9 0L9 1L8 1L8 3L9 3L9 4L8 4L8 8L6 8L6 9L8 9L8 8L10 8L10 10L8 10L8 11L7 11L7 10L5 10L5 9L4 9L4 8L3 8L3 9L2 9L2 8L0 8L0 9L2 9L2 10L1 10L1 11L0 11L0 13L1 13L1 11L2 11L2 12L3 12L3 11L2 11L2 10L3 10L3 9L4 9L4 11L7 11L7 12L4 12L4 13L7 13L7 14L6 14L6 15L5 15L5 14L3 14L3 13L2 13L2 15L1 15L1 14L0 14L0 15L1 15L1 16L0 16L0 17L2 17L2 16L3 16L3 15L5 15L5 17L8 17L8 19L9 19L9 21L8 21L8 22L9 22L9 23L8 23L8 25L10 25L10 24L9 24L9 23L11 23L11 24L12 24L12 23L13 23L13 25L17 25L17 24L18 24L18 25L20 25L20 24L19 24L19 23L17 23L17 22L16 22L16 21L19 21L19 22L20 22L20 23L21 23L21 24L22 24L22 23L23 23L23 21L24 21L24 20L23 20L23 19L25 19L25 17L24 17L24 18L23 18L23 16L24 16L24 15L25 15L25 12L23 12L23 13L22 13L22 12L21 12L21 14L22 14L22 15L20 15L20 16L17 16L17 15L19 15L19 14L20 14L20 13L19 13L19 9L21 9L21 8L18 8L18 9L16 9L16 11L17 11L17 15L16 15L16 16L15 16L15 14L14 14L14 15L13 15L13 13L14 13L14 12L15 12L15 11L14 11L14 9L15 9L15 8L16 8L16 7L17 7L17 6L16 6L16 4L15 4L15 3L16 3L16 0L12 0L12 1L11 1L11 2L9 2L9 1L10 1L10 0ZM13 2L13 3L12 3L12 4L9 4L9 5L10 5L10 6L9 6L9 7L10 7L10 8L11 8L11 9L12 9L12 10L11 10L11 11L9 11L9 12L7 12L7 13L8 13L8 15L6 15L6 16L8 16L8 17L9 17L9 16L8 16L8 15L9 15L9 14L10 14L10 13L12 13L12 12L13 12L13 8L15 8L15 7L16 7L16 6L15 6L15 7L14 7L14 5L15 5L15 4L14 4L14 2ZM13 4L13 5L14 5L14 4ZM11 5L11 6L10 6L10 7L11 7L11 6L12 6L12 8L13 8L13 6L12 6L12 5ZM22 8L22 9L24 9L24 10L23 10L23 11L25 11L25 9L24 9L24 8ZM17 10L17 11L18 11L18 10ZM23 13L23 15L22 15L22 16L23 16L23 15L24 15L24 13ZM11 14L11 15L10 15L10 16L12 16L12 14ZM13 16L13 17L10 17L10 18L9 18L9 19L11 19L11 20L12 20L12 21L11 21L11 23L12 23L12 22L13 22L13 23L14 23L14 24L15 24L15 23L16 23L16 22L15 22L15 21L16 21L16 19L13 19L13 17L14 17L14 18L15 18L15 16ZM17 17L17 20L20 20L20 17ZM18 18L18 19L19 19L19 18ZM21 18L21 19L23 19L23 18ZM13 20L13 21L14 21L14 20ZM21 20L21 22L22 22L22 21L23 21L23 20ZM24 22L24 23L25 23L25 22ZM23 24L23 25L25 25L25 24ZM0 0L0 7L7 7L7 0ZM1 1L1 6L6 6L6 1ZM2 2L2 5L5 5L5 2ZM18 0L18 7L25 7L25 0ZM19 1L19 6L24 6L24 1ZM20 2L20 5L23 5L23 2ZM0 18L0 25L7 25L7 18ZM1 19L1 24L6 24L6 19ZM2 20L2 23L5 23L5 20Z" fill="#000000"/></g></g></svg>
