<?xml version="1.0" encoding="UTF-8"?>
<svg xmlns="http://www.w3.org/2000/svg" version="1.1" width="300" height="300" viewBox="0 0 300 300"><rect x="0" y="0" width="300" height="300" fill="#ffffff"/><g transform="scale(12)"><g transform="translate(0,0)"><path fill-rule="evenodd" d="M8 0L8 2L10 2L10 4L8 4L8 9L9 9L9 10L6 10L6 9L7 9L7 8L5 8L5 10L4 10L4 9L3 9L3 8L0 8L0 10L1 10L1 11L0 11L0 13L1 13L1 11L2 11L2 12L3 12L3 11L5 11L5 12L4 12L4 13L2 13L2 14L0 14L0 15L2 15L2 16L0 16L0 17L2 17L2 16L3 16L3 17L4 17L4 15L5 15L5 14L6 14L6 15L7 15L7 16L6 16L6 17L7 17L7 16L8 16L8 15L9 15L9 14L8 14L8 15L7 15L7 14L6 14L6 13L7 13L7 12L8 12L8 11L9 11L9 13L10 13L10 11L9 11L9 10L11 10L11 11L12 11L12 10L11 10L11 8L13 8L13 6L14 6L14 7L15 7L15 6L14 6L14 4L16 4L16 5L17 5L17 4L16 4L16 3L14 3L14 2L15 2L15 0L14 0L14 1L13 1L13 0L11 0L11 1L9 1L9 0ZM11 1L11 2L12 2L12 1ZM16 1L16 2L17 2L17 1ZM11 3L11 4L12 4L12 6L11 6L11 5L9 5L9 8L10 8L10 6L11 6L11 7L12 7L12 6L13 6L13 3ZM16 6L16 8L15 8L15 15L14 15L14 14L13 14L13 12L11 12L11 13L12 13L12 15L11 15L11 14L10 14L10 16L9 16L9 17L8 17L8 18L9 18L9 19L8 19L8 20L9 20L9 22L8 22L8 25L9 25L9 24L10 24L10 23L12 23L12 20L13 20L13 18L9 18L9 17L10 17L10 16L12 16L12 17L13 17L13 15L14 15L14 16L16 16L16 19L15 19L15 17L14 17L14 19L15 19L15 20L14 20L14 21L13 21L13 22L14 22L14 21L17 21L17 23L16 23L16 22L15 22L15 23L14 23L14 25L15 25L15 23L16 23L16 25L19 25L19 24L21 24L21 25L22 25L22 24L21 24L21 22L23 22L23 23L25 23L25 22L24 22L24 19L25 19L25 17L24 17L24 16L23 16L23 17L22 17L22 18L21 18L21 15L23 15L23 14L24 14L24 15L25 15L25 12L24 12L24 13L23 13L23 14L20 14L20 12L22 12L22 11L23 11L23 10L24 10L24 11L25 11L25 8L23 8L23 10L22 10L22 9L21 9L21 8L17 8L17 6ZM16 8L16 9L17 9L17 10L16 10L16 13L17 13L17 14L16 14L16 15L17 15L17 14L18 14L18 12L17 12L17 10L18 10L18 9L17 9L17 8ZM2 9L2 11L3 11L3 9ZM20 9L20 10L19 10L19 11L21 11L21 9ZM13 10L13 11L14 11L14 10ZM6 11L6 12L5 12L5 13L6 13L6 12L7 12L7 11ZM2 14L2 15L4 15L4 14ZM18 15L18 16L19 16L19 15ZM17 17L17 20L20 20L20 17ZM23 17L23 18L22 18L22 19L21 19L21 20L22 20L22 21L23 21L23 19L24 19L24 17ZM18 18L18 19L19 19L19 18ZM10 20L10 22L9 22L9 23L10 23L10 22L11 22L11 20ZM18 21L18 23L20 23L20 21ZM11 24L11 25L12 25L12 24ZM24 24L24 25L25 25L25 24ZM0 0L0 7L7 7L7 0ZM1 1L1 6L6 6L6 1ZM2 2L2 5L5 5L5 2ZM18 0L18 7L25 7L25 0ZM19 1L19 6L24 6L24 1ZM20 2L20 5L23 5L23 2ZM0 18L0 25L7 25L7 18ZM1 19L1 24L6 24L6 19ZM2 20L2 23L5 23L5 20Z" fill="#000000"/></g></g></svg>
