<?xml version="1.0" encoding="UTF-8"?>
<svg xmlns="http://www.w3.org/2000/svg" version="1.1" width="300" height="300" viewBox="0 0 300 300"><rect x="0" y="0" width="300" height="300" fill="#ffffff"/><g transform="scale(12)"><g transform="translate(0,0)"><path fill-rule="evenodd" d="M9 0L9 1L11 1L11 2L9 2L9 3L8 3L8 5L9 5L9 6L8 6L8 7L9 7L9 9L8 9L8 8L5 8L5 9L4 9L4 10L2 10L2 8L0 8L0 9L1 9L1 10L0 10L0 11L1 11L1 10L2 10L2 12L0 12L0 17L1 17L1 13L2 13L2 12L3 12L3 13L4 13L4 14L2 14L2 15L3 15L3 16L4 16L4 15L5 15L5 17L7 17L7 16L6 16L6 15L8 15L8 12L9 12L9 13L10 13L10 14L11 14L11 12L12 12L12 11L13 11L13 10L11 10L11 8L10 8L10 7L11 7L11 4L12 4L12 5L13 5L13 6L12 6L12 9L14 9L14 11L15 11L15 14L14 14L14 15L15 15L15 16L13 16L13 15L12 15L12 17L14 17L14 19L15 19L15 21L14 21L14 20L12 20L12 19L13 19L13 18L12 18L12 19L9 19L9 18L11 18L11 17L10 17L10 16L11 16L11 15L9 15L9 17L8 17L8 20L9 20L9 22L10 22L10 24L9 24L9 23L8 23L8 25L12 25L12 24L11 24L11 21L12 21L12 22L13 22L13 23L14 23L14 25L15 25L15 23L16 23L16 25L19 25L19 24L21 24L21 25L22 25L22 24L21 24L21 23L20 23L20 22L19 22L19 21L21 21L21 22L22 22L22 23L23 23L23 22L24 22L24 25L25 25L25 21L23 21L23 20L21 20L21 19L22 19L22 18L23 18L23 15L24 15L24 16L25 16L25 14L24 14L24 13L25 13L25 10L24 10L24 9L22 9L22 8L20 8L20 9L19 9L19 10L18 10L18 11L17 11L17 10L16 10L16 9L17 9L17 6L16 6L16 8L13 8L13 6L14 6L14 7L15 7L15 6L14 6L14 5L15 5L15 4L17 4L17 1L16 1L16 3L15 3L15 0L14 0L14 1L12 1L12 0ZM12 2L12 4L13 4L13 5L14 5L14 4L15 4L15 3L14 3L14 2ZM9 3L9 5L10 5L10 3ZM13 3L13 4L14 4L14 3ZM9 6L9 7L10 7L10 6ZM6 9L6 10L4 10L4 13L6 13L6 14L5 14L5 15L6 15L6 14L7 14L7 13L6 13L6 12L8 12L8 11L9 11L9 12L10 12L10 11L11 11L11 10L10 10L10 9L9 9L9 10L8 10L8 11L6 11L6 10L7 10L7 9ZM9 10L9 11L10 11L10 10ZM22 10L22 12L20 12L20 14L19 14L19 13L18 13L18 12L19 12L19 11L18 11L18 12L17 12L17 11L16 11L16 13L17 13L17 15L16 15L16 16L15 16L15 19L16 19L16 16L17 16L17 15L18 15L18 14L19 14L19 15L20 15L20 16L21 16L21 18L22 18L22 15L23 15L23 13L24 13L24 11L23 11L23 10ZM5 11L5 12L6 12L6 11ZM12 13L12 14L13 14L13 13ZM21 14L21 15L22 15L22 14ZM17 17L17 20L20 20L20 17ZM18 18L18 19L19 19L19 18ZM24 18L24 20L25 20L25 18ZM10 20L10 21L11 21L11 20ZM15 21L15 22L16 22L16 21ZM22 21L22 22L23 22L23 21ZM17 22L17 23L18 23L18 24L19 24L19 22ZM0 0L0 7L7 7L7 0ZM1 1L1 6L6 6L6 1ZM2 2L2 5L5 5L5 2ZM18 0L18 7L25 7L25 0ZM19 1L19 6L24 6L24 1ZM20 2L20 5L23 5L23 2ZM0 18L0 25L7 25L7 18ZM1 19L1 24L6 24L6 19ZM2 20L2 23L5 23L5 20Z" fill="#000000"/></g></g></svg>
