<?xml version="1.0" encoding="UTF-8"?>
<svg xmlns="http://www.w3.org/2000/svg" version="1.1" width="300" height="300" viewBox="0 0 300 300"><rect x="0" y="0" width="300" height="300" fill="#ffffff"/><g transform="scale(12)"><g transform="translate(0,0)"><path fill-rule="evenodd" d="M8 0L8 1L9 1L9 2L10 2L10 3L11 3L11 1L13 1L13 0L11 0L11 1L9 1L9 0ZM14 0L14 1L15 1L15 0ZM16 1L16 2L17 2L17 1ZM12 2L12 4L11 4L11 5L10 5L10 4L9 4L9 5L10 5L10 8L9 8L9 6L8 6L8 8L9 8L9 9L8 9L8 11L9 11L9 12L6 12L6 11L7 11L7 10L6 10L6 9L7 9L7 8L6 8L6 9L5 9L5 8L3 8L3 9L2 9L2 8L0 8L0 9L2 9L2 10L1 10L1 11L0 11L0 12L1 12L1 11L2 11L2 10L3 10L3 11L5 11L5 13L4 13L4 14L3 14L3 15L4 15L4 14L6 14L6 15L8 15L8 18L10 18L10 20L11 20L11 22L9 22L9 20L8 20L8 22L9 22L9 23L8 23L8 25L9 25L9 24L10 24L10 23L11 23L11 25L12 25L12 24L13 24L13 23L14 23L14 25L15 25L15 23L18 23L18 22L19 22L19 24L16 24L16 25L19 25L19 24L21 24L21 25L22 25L22 24L24 24L24 25L25 25L25 21L23 21L23 22L22 22L22 20L21 20L21 19L22 19L22 18L21 18L21 16L20 16L20 14L21 14L21 15L22 15L22 17L23 17L23 18L24 18L24 19L23 19L23 20L25 20L25 18L24 18L24 16L25 16L25 14L24 14L24 13L25 13L25 10L24 10L24 9L25 9L25 8L24 8L24 9L19 9L19 8L18 8L18 9L19 9L19 10L16 10L16 8L17 8L17 5L16 5L16 8L15 8L15 6L14 6L14 5L12 5L12 4L14 4L14 3L15 3L15 4L17 4L17 3L15 3L15 2ZM11 5L11 7L12 7L12 9L10 9L10 10L9 10L9 11L10 11L10 10L12 10L12 11L13 11L13 13L11 13L11 12L10 12L10 13L6 13L6 14L8 14L8 15L9 15L9 16L10 16L10 17L12 17L12 16L14 16L14 17L13 17L13 18L12 18L12 19L11 19L11 20L12 20L12 21L15 21L15 22L14 22L14 23L15 23L15 22L16 22L16 21L15 21L15 20L12 20L12 19L14 19L14 17L15 17L15 19L16 19L16 16L17 16L17 15L18 15L18 14L20 14L20 13L21 13L21 14L23 14L23 13L24 13L24 12L20 12L20 13L18 13L18 12L19 12L19 11L17 11L17 12L16 12L16 13L17 13L17 14L16 14L16 16L15 16L15 15L12 15L12 16L11 16L11 15L10 15L10 14L13 14L13 13L15 13L15 10L14 10L14 8L13 8L13 7L14 7L14 6L13 6L13 7L12 7L12 5ZM3 9L3 10L5 10L5 11L6 11L6 10L5 10L5 9ZM12 9L12 10L13 10L13 9ZM20 10L20 11L21 11L21 10ZM22 10L22 11L24 11L24 10ZM2 12L2 13L3 13L3 12ZM0 13L0 17L1 17L1 15L2 15L2 14L1 14L1 13ZM23 15L23 16L24 16L24 15ZM2 16L2 17L3 17L3 16ZM4 16L4 17L7 17L7 16ZM17 17L17 20L20 20L20 17ZM18 18L18 19L19 19L19 18ZM19 21L19 22L21 22L21 24L22 24L22 22L21 22L21 21ZM12 22L12 23L13 23L13 22ZM0 0L0 7L7 7L7 0ZM1 1L1 6L6 6L6 1ZM2 2L2 5L5 5L5 2ZM18 0L18 7L25 7L25 0ZM19 1L19 6L24 6L24 1ZM20 2L20 5L23 5L23 2ZM0 18L0 25L7 25L7 18ZM1 19L1 24L6 24L6 19ZM2 20L2 23L5 23L5 20Z" fill="#000000"/></g></g></svg>
