<?xml version="1.0" encoding="UTF-8"?>
<svg xmlns="http://www.w3.org/2000/svg" version="1.1" width="300" height="300" viewBox="0 0 300 300"><rect x="0" y="0" width="300" height="300" fill="#ffffff"/><g transform="scale(12)"><g transform="translate(0,0)"><path fill-rule="evenodd" d="M8 0L8 4L9 4L9 5L8 5L8 7L9 7L9 6L10 6L10 9L11 9L11 8L12 8L12 9L13 9L13 10L14 10L14 11L16 11L16 13L12 13L12 12L13 12L13 11L12 11L12 12L11 12L11 13L9 13L9 12L10 12L10 11L11 11L11 10L9 10L9 9L8 9L8 10L9 10L9 11L8 11L8 13L7 13L7 12L5 12L5 11L7 11L7 10L5 10L5 9L7 9L7 8L4 8L4 10L3 10L3 9L2 9L2 8L0 8L0 9L2 9L2 10L1 10L1 11L0 11L0 12L1 12L1 11L2 11L2 12L3 12L3 13L2 13L2 15L3 15L3 16L0 16L0 17L3 17L3 16L5 16L5 17L8 17L8 18L9 18L9 17L10 17L10 18L11 18L11 17L10 17L10 16L12 16L12 17L13 17L13 19L12 19L12 20L9 20L9 19L8 19L8 21L10 21L10 23L14 23L14 25L16 25L16 22L15 22L15 20L14 20L14 22L13 22L13 19L14 19L14 17L13 17L13 16L12 16L12 15L13 15L13 14L14 14L14 16L15 16L15 17L16 17L16 21L17 21L17 23L18 23L18 25L19 25L19 24L22 24L22 25L25 25L25 24L24 24L24 22L25 22L25 21L23 21L23 20L24 20L24 19L22 19L22 18L23 18L23 16L24 16L24 15L23 15L23 14L24 14L24 13L25 13L25 12L24 12L24 11L23 11L23 10L24 10L24 9L25 9L25 8L21 8L21 9L20 9L20 8L19 8L19 9L20 9L20 10L19 10L19 11L18 11L18 10L17 10L17 8L16 8L16 7L17 7L17 6L16 6L16 7L15 7L15 5L16 5L16 4L17 4L17 3L16 3L16 4L15 4L15 2L14 2L14 3L13 3L13 1L11 1L11 2L12 2L12 5L14 5L14 7L15 7L15 8L16 8L16 9L13 9L13 8L12 8L12 7L13 7L13 6L12 6L12 7L11 7L11 3L10 3L10 2L9 2L9 0ZM14 0L14 1L16 1L16 2L17 2L17 0ZM14 4L14 5L15 5L15 4ZM22 9L22 10L23 10L23 9ZM4 10L4 11L3 11L3 12L4 12L4 13L3 13L3 14L5 14L5 12L4 12L4 11L5 11L5 10ZM16 10L16 11L17 11L17 12L18 12L18 11L17 11L17 10ZM21 11L21 12L20 12L20 13L17 13L17 14L16 14L16 15L15 15L15 16L19 16L19 15L21 15L21 14L23 14L23 13L21 13L21 12L22 12L22 11ZM0 13L0 14L1 14L1 13ZM6 13L6 14L7 14L7 13ZM11 13L11 14L9 14L9 15L6 15L6 16L9 16L9 15L11 15L11 14L12 14L12 13ZM20 13L20 14L21 14L21 13ZM17 14L17 15L18 15L18 14ZM17 17L17 20L20 20L20 17ZM21 17L21 18L22 18L22 17ZM18 18L18 19L19 19L19 18ZM21 20L21 21L20 21L20 23L23 23L23 22L21 22L21 21L22 21L22 20ZM11 21L11 22L12 22L12 21ZM8 23L8 25L9 25L9 23ZM0 0L0 7L7 7L7 0ZM1 1L1 6L6 6L6 1ZM2 2L2 5L5 5L5 2ZM18 0L18 7L25 7L25 0ZM19 1L19 6L24 6L24 1ZM20 2L20 5L23 5L23 2ZM0 18L0 25L7 25L7 18ZM1 19L1 24L6 24L6 19ZM2 20L2 23L5 23L5 20Z" fill="#000000"/></g></g></svg>
