<?xml version="1.0" encoding="UTF-8"?>
<svg xmlns="http://www.w3.org/2000/svg" version="1.1" width="300" height="300" viewBox="0 0 300 300"><rect x="0" y="0" width="300" height="300" fill="#ffffff"/><g transform="scale(12)"><g transform="translate(0,0)"><path fill-rule="evenodd" d="M8 0L8 1L9 1L9 2L8 2L8 5L9 5L9 4L11 4L11 5L10 5L10 10L8 10L8 9L9 9L9 8L8 8L8 9L7 9L7 8L6 8L6 9L7 9L7 10L6 10L6 11L2 11L2 10L1 10L1 9L4 9L4 10L5 10L5 9L4 9L4 8L0 8L0 13L1 13L1 12L2 12L2 14L1 14L1 15L0 15L0 16L1 16L1 15L2 15L2 14L3 14L3 12L4 12L4 15L3 15L3 16L2 16L2 17L3 17L3 16L4 16L4 17L5 17L5 16L4 16L4 15L7 15L7 14L8 14L8 15L9 15L9 14L10 14L10 13L11 13L11 16L12 16L12 14L13 14L13 15L14 15L14 16L13 16L13 18L12 18L12 19L11 19L11 17L10 17L10 16L8 16L8 18L9 18L9 19L11 19L11 20L10 20L10 21L8 21L8 25L10 25L10 24L9 24L9 23L10 23L10 22L11 22L11 23L12 23L12 24L13 24L13 25L14 25L14 24L15 24L15 23L14 23L14 21L13 21L13 20L12 20L12 19L14 19L14 20L16 20L16 21L15 21L15 22L16 22L16 23L17 23L17 24L18 24L18 25L25 25L25 24L23 24L23 23L24 23L24 22L25 22L25 20L24 20L24 21L22 21L22 22L21 22L21 19L25 19L25 15L24 15L24 14L25 14L25 12L23 12L23 11L20 11L20 9L23 9L23 10L24 10L24 9L25 9L25 8L24 8L24 9L23 9L23 8L20 8L20 9L19 9L19 11L18 11L18 10L17 10L17 9L18 9L18 8L17 8L17 5L16 5L16 4L15 4L15 3L16 3L16 2L17 2L17 0L16 0L16 2L14 2L14 0L12 0L12 1L11 1L11 0L10 0L10 1L9 1L9 0ZM11 2L11 4L12 4L12 3L13 3L13 2ZM13 4L13 5L12 5L12 6L11 6L11 8L12 8L12 6L13 6L13 11L11 11L11 13L12 13L12 12L13 12L13 11L14 11L14 12L15 12L15 11L16 11L16 9L17 9L17 8L16 8L16 5L15 5L15 4ZM8 6L8 7L9 7L9 6ZM14 6L14 9L15 9L15 6ZM11 9L11 10L12 10L12 9ZM7 10L7 11L6 11L6 12L5 12L5 14L7 14L7 13L6 13L6 12L9 12L9 11L8 11L8 10ZM19 11L19 13L20 13L20 11ZM21 12L21 14L20 14L20 15L22 15L22 16L24 16L24 15L22 15L22 14L24 14L24 13L22 13L22 12ZM13 13L13 14L14 14L14 13ZM15 14L15 16L14 16L14 17L15 17L15 18L14 18L14 19L16 19L16 17L15 17L15 16L16 16L16 15L19 15L19 14ZM6 16L6 17L7 17L7 16ZM9 17L9 18L10 18L10 17ZM17 17L17 20L20 20L20 17ZM21 17L21 18L24 18L24 17ZM18 18L18 19L19 19L19 18ZM11 20L11 21L12 21L12 20ZM16 21L16 22L17 22L17 21ZM19 21L19 22L20 22L20 21ZM12 22L12 23L13 23L13 22ZM19 23L19 24L20 24L20 23ZM21 23L21 24L22 24L22 23ZM0 0L0 7L7 7L7 0ZM1 1L1 6L6 6L6 1ZM2 2L2 5L5 5L5 2ZM18 0L18 7L25 7L25 0ZM19 1L19 6L24 6L24 1ZM20 2L20 5L23 5L23 2ZM0 18L0 25L7 25L7 18ZM1 19L1 24L6 24L6 19ZM2 20L2 23L5 23L5 20Z" fill="#000000"/></g></g></svg>
