<?xml version="1.0" encoding="UTF-8"?>
<svg xmlns="http://www.w3.org/2000/svg" version="1.1" width="300" height="300" viewBox="0 0 300 300"><rect x="0" y="0" width="300" height="300" fill="#ffffff"/><g transform="scale(12)"><g transform="translate(0,0)"><path fill-rule="evenodd" d="M11 0L11 1L9 1L9 2L11 2L11 1L13 1L13 2L12 2L12 4L14 4L14 5L11 5L11 6L10 6L10 8L9 8L9 10L10 10L10 11L8 11L8 13L7 13L7 12L6 12L6 13L5 13L5 14L3 14L3 13L4 13L4 10L5 10L5 9L7 9L7 10L6 10L6 11L7 11L7 10L8 10L8 8L5 8L5 9L3 9L3 12L2 12L2 11L1 11L1 10L2 10L2 8L0 8L0 9L1 9L1 10L0 10L0 11L1 11L1 12L0 12L0 17L1 17L1 12L2 12L2 15L4 15L4 17L5 17L5 16L6 16L6 17L7 17L7 16L8 16L8 15L10 15L10 14L8 14L8 13L10 13L10 11L11 11L11 10L10 10L10 8L11 8L11 9L12 9L12 10L13 10L13 9L14 9L14 11L15 11L15 14L14 14L14 15L15 15L15 16L12 16L12 15L13 15L13 14L11 14L11 17L12 17L12 18L11 18L11 20L12 20L12 18L13 18L13 17L14 17L14 19L15 19L15 21L14 21L14 20L13 20L13 21L11 21L11 22L13 22L13 23L10 23L10 19L9 19L9 18L10 18L10 16L9 16L9 17L8 17L8 20L9 20L9 23L8 23L8 25L9 25L9 24L10 24L10 25L12 25L12 24L13 24L13 23L14 23L14 25L15 25L15 23L16 23L16 25L19 25L19 24L21 24L21 25L22 25L22 24L21 24L21 23L20 23L20 22L19 22L19 21L21 21L21 22L22 22L22 23L23 23L23 22L24 22L24 25L25 25L25 21L23 21L23 20L25 20L25 18L24 18L24 19L23 19L23 20L21 20L21 19L22 19L22 18L23 18L23 15L24 15L24 16L25 16L25 14L24 14L24 13L25 13L25 10L24 10L24 9L22 9L22 8L20 8L20 9L19 9L19 10L18 10L18 11L17 11L17 10L16 10L16 9L17 9L17 6L16 6L16 8L13 8L13 9L12 9L12 7L13 7L13 6L14 6L14 7L15 7L15 6L14 6L14 5L15 5L15 4L17 4L17 1L16 1L16 3L15 3L15 0L14 0L14 1L13 1L13 0ZM13 2L13 3L14 3L14 4L15 4L15 3L14 3L14 2ZM8 3L8 5L10 5L10 4L9 4L9 3ZM8 6L8 7L9 7L9 6ZM11 6L11 7L12 7L12 6ZM22 10L22 12L20 12L20 14L19 14L19 13L18 13L18 12L19 12L19 11L18 11L18 12L17 12L17 11L16 11L16 13L17 13L17 15L16 15L16 16L15 16L15 19L16 19L16 16L17 16L17 15L18 15L18 14L19 14L19 15L20 15L20 16L21 16L21 18L22 18L22 15L23 15L23 13L24 13L24 11L23 11L23 10ZM12 11L12 12L11 12L11 13L13 13L13 11ZM6 13L6 14L5 14L5 15L6 15L6 16L7 16L7 15L8 15L8 14L7 14L7 13ZM6 14L6 15L7 15L7 14ZM21 14L21 15L22 15L22 14ZM2 16L2 17L3 17L3 16ZM17 17L17 20L20 20L20 17ZM18 18L18 19L19 19L19 18ZM15 21L15 22L16 22L16 21ZM22 21L22 22L23 22L23 21ZM17 22L17 23L18 23L18 24L19 24L19 22ZM0 0L0 7L7 7L7 0ZM1 1L1 6L6 6L6 1ZM2 2L2 5L5 5L5 2ZM18 0L18 7L25 7L25 0ZM19 1L19 6L24 6L24 1ZM20 2L20 5L23 5L23 2ZM0 18L0 25L7 25L7 18ZM1 19L1 24L6 24L6 19ZM2 20L2 23L5 23L5 20Z" fill="#000000"/></g></g></svg>
