<?xml version="1.0" encoding="UTF-8"?>
<svg xmlns="http://www.w3.org/2000/svg" version="1.1" width="300" height="300" viewBox="0 0 300 300"><rect x="0" y="0" width="300" height="300" fill="#ffffff"/><g transform="scale(12)"><g transform="translate(0,0)"><path fill-rule="evenodd" d="M10 0L10 2L11 2L11 0ZM12 0L12 1L13 1L13 2L12 2L12 4L14 4L14 5L11 5L11 6L10 6L10 4L11 4L11 3L8 3L8 4L9 4L9 5L8 5L8 7L9 7L9 8L6 8L6 9L7 9L7 10L6 10L6 11L5 11L5 12L3 12L3 11L4 11L4 10L5 10L5 8L0 8L0 9L2 9L2 10L3 10L3 11L2 11L2 12L3 12L3 13L4 13L4 14L6 14L6 15L7 15L7 14L6 14L6 13L11 13L11 12L9 12L9 11L7 11L7 10L9 10L9 9L10 9L10 11L11 11L11 9L12 9L12 10L13 10L13 9L16 9L16 10L14 10L14 11L17 11L17 12L13 12L13 11L12 11L12 13L16 13L16 14L14 14L14 16L12 16L12 15L13 15L13 14L11 14L11 15L9 15L9 14L8 14L8 19L9 19L9 18L10 18L10 19L11 19L11 18L10 18L10 17L12 17L12 19L14 19L14 18L16 18L16 20L15 20L15 22L14 22L14 20L13 20L13 21L11 21L11 20L8 20L8 25L11 25L11 24L13 24L13 25L14 25L14 24L18 24L18 25L25 25L25 21L23 21L23 20L25 20L25 18L23 18L23 16L22 16L22 13L23 13L23 15L24 15L24 16L25 16L25 14L24 14L24 13L25 13L25 10L24 10L24 8L23 8L23 11L24 11L24 12L22 12L22 13L21 13L21 11L22 11L22 10L20 10L20 8L19 8L19 10L18 10L18 11L17 11L17 9L18 9L18 8L17 8L17 6L16 6L16 5L15 5L15 2L16 2L16 3L17 3L17 0L16 0L16 1L14 1L14 0ZM8 1L8 2L9 2L9 1ZM13 2L13 3L14 3L14 2ZM14 5L14 6L13 6L13 7L12 7L12 6L11 6L11 7L12 7L12 9L13 9L13 8L15 8L15 7L16 7L16 6L15 6L15 5ZM9 6L9 7L10 7L10 6ZM14 6L14 7L15 7L15 6ZM10 8L10 9L11 9L11 8ZM21 8L21 9L22 9L22 8ZM3 9L3 10L4 10L4 9ZM0 10L0 11L1 11L1 10ZM6 11L6 12L5 12L5 13L6 13L6 12L7 12L7 11ZM18 11L18 12L19 12L19 13L17 13L17 15L18 15L18 14L19 14L19 15L21 15L21 13L20 13L20 12L19 12L19 11ZM0 13L0 17L1 17L1 14L2 14L2 13ZM19 13L19 14L20 14L20 13ZM2 15L2 16L3 16L3 17L4 17L4 16L5 16L5 15ZM15 15L15 17L16 17L16 15ZM6 16L6 17L7 17L7 16ZM9 16L9 17L10 17L10 16ZM21 16L21 17L22 17L22 16ZM13 17L13 18L14 18L14 17ZM17 17L17 20L20 20L20 17ZM18 18L18 19L19 19L19 18ZM22 19L22 20L23 20L23 19ZM10 21L10 23L9 23L9 24L11 24L11 23L13 23L13 24L14 24L14 23L13 23L13 22L11 22L11 21ZM16 21L16 22L17 22L17 23L18 23L18 24L19 24L19 22L20 22L20 23L22 23L22 24L24 24L24 22L23 22L23 23L22 23L22 21L21 21L21 22L20 22L20 21L19 21L19 22L17 22L17 21ZM0 0L0 7L7 7L7 0ZM1 1L1 6L6 6L6 1ZM2 2L2 5L5 5L5 2ZM18 0L18 7L25 7L25 0ZM19 1L19 6L24 6L24 1ZM20 2L20 5L23 5L23 2ZM0 18L0 25L7 25L7 18ZM1 19L1 24L6 24L6 19ZM2 20L2 23L5 23L5 20Z" fill="#000000"/></g></g></svg>
